<svg width="58" height="58" viewBox="0 0 58 58" fill="none" xmlns="http://www.w3.org/2000/svg">
<path fill-rule="evenodd" clip-rule="evenodd" d="M28.9256 56.7743L25.5478 57.3652L22.4073 55.9717L18.989 55.7249L16.2684 53.609L13.0067 52.539L10.865 49.8237L7.95088 47.9938L6.51105 44.8378L4.11274 42.353L3.45972 38.9374L1.71778 35.9428L1.88861 32.4692L0.903198 29.1382L1.88777 25.8072L1.71778 22.3335L3.45972 19.3381L4.11274 15.9242L6.51105 13.4394L7.95004 10.2826L10.865 8.45184L13.0067 5.73647L16.2684 4.6674L18.989 2.55146L22.4073 2.30468L25.5478 0.911133L28.9256 1.50202L32.3035 0.911133L35.444 2.30468L38.8622 2.55146L41.5829 4.6674L44.8446 5.73732L46.9862 8.45269L49.9004 10.2826L51.3402 13.4386L53.7385 15.9234L54.3916 19.3389L56.1335 22.3335L55.9627 25.8072L56.9481 29.1382L55.9635 32.4692L56.1335 35.9428L54.3916 38.9383L53.7385 42.3521L51.3402 44.8369L49.9012 47.9938L46.9862 49.8245L44.8446 52.5399L41.5829 53.609L38.8622 55.7249L35.444 55.9717L32.3035 57.3652L28.9256 56.7743Z" stroke="black" stroke-width="0.5"/>
</svg>
