<svg width="335" height="51" viewBox="0 0 335 51" fill="none" xmlns="http://www.w3.org/2000/svg">
<rect width="335" height="51" fill="white" fill-opacity="0.8"/>
<path d="M111.19 26.744L116.104 19.148H114.16L110.398 25.268L106.546 19.148H104.512L109.48 26.744V32H111.19V26.744ZM119.082 27.356C119.082 26.792 119.154 26.294 119.298 25.862C119.454 25.418 119.664 25.046 119.928 24.746C120.192 24.446 120.498 24.218 120.846 24.062C121.206 23.906 121.584 23.828 121.98 23.828C122.376 23.828 122.748 23.906 123.096 24.062C123.456 24.218 123.768 24.446 124.032 24.746C124.296 25.046 124.5 25.418 124.644 25.862C124.8 26.294 124.878 26.792 124.878 27.356C124.878 27.92 124.8 28.424 124.644 28.868C124.5 29.3 124.296 29.666 124.032 29.966C123.768 30.254 123.456 30.476 123.096 30.632C122.748 30.788 122.376 30.866 121.98 30.866C121.584 30.866 121.206 30.788 120.846 30.632C120.498 30.476 120.192 30.254 119.928 29.966C119.664 29.666 119.454 29.3 119.298 28.868C119.154 28.424 119.082 27.92 119.082 27.356ZM117.462 27.356C117.462 28.04 117.558 28.676 117.75 29.264C117.942 29.852 118.23 30.368 118.614 30.812C118.998 31.244 119.472 31.586 120.036 31.838C120.6 32.078 121.248 32.198 121.98 32.198C122.724 32.198 123.372 32.078 123.924 31.838C124.488 31.586 124.962 31.244 125.346 30.812C125.73 30.368 126.018 29.852 126.21 29.264C126.402 28.676 126.498 28.04 126.498 27.356C126.498 26.672 126.402 26.036 126.21 25.448C126.018 24.848 125.73 24.332 125.346 23.9C124.962 23.456 124.488 23.108 123.924 22.856C123.372 22.604 122.724 22.478 121.98 22.478C121.248 22.478 120.6 22.604 120.036 22.856C119.472 23.108 118.998 23.456 118.614 23.9C118.23 24.332 117.942 24.848 117.75 25.448C117.558 26.036 117.462 26.672 117.462 27.356ZM131.908 29.066H130.378C130.402 29.642 130.522 30.134 130.738 30.542C130.954 30.938 131.242 31.262 131.602 31.514C131.962 31.754 132.376 31.928 132.844 32.036C133.312 32.144 133.804 32.198 134.32 32.198C134.788 32.198 135.256 32.15 135.724 32.054C136.204 31.97 136.63 31.814 137.002 31.586C137.386 31.358 137.692 31.058 137.92 30.686C138.16 30.314 138.28 29.846 138.28 29.282C138.28 28.838 138.19 28.466 138.01 28.166C137.842 27.866 137.614 27.62 137.326 27.428C137.05 27.224 136.726 27.062 136.354 26.942C135.994 26.822 135.622 26.72 135.238 26.636C134.878 26.552 134.518 26.474 134.158 26.402C133.798 26.318 133.474 26.222 133.186 26.114C132.898 25.994 132.658 25.85 132.466 25.682C132.286 25.502 132.196 25.28 132.196 25.016C132.196 24.776 132.256 24.584 132.376 24.44C132.496 24.284 132.652 24.164 132.844 24.08C133.036 23.984 133.246 23.918 133.474 23.882C133.714 23.846 133.948 23.828 134.176 23.828C134.428 23.828 134.674 23.858 134.914 23.918C135.166 23.966 135.394 24.05 135.598 24.17C135.802 24.29 135.97 24.452 136.102 24.656C136.234 24.848 136.312 25.094 136.336 25.394H137.866C137.83 24.83 137.71 24.362 137.506 23.99C137.302 23.606 137.026 23.306 136.678 23.09C136.342 22.862 135.952 22.706 135.508 22.622C135.064 22.526 134.578 22.478 134.05 22.478C133.642 22.478 133.228 22.532 132.808 22.64C132.4 22.736 132.028 22.892 131.692 23.108C131.368 23.312 131.098 23.582 130.882 23.918C130.678 24.254 130.576 24.656 130.576 25.124C130.576 25.724 130.726 26.192 131.026 26.528C131.326 26.864 131.698 27.128 132.142 27.32C132.598 27.5 133.09 27.644 133.618 27.752C134.146 27.848 134.632 27.962 135.076 28.094C135.532 28.214 135.91 28.376 136.21 28.58C136.51 28.784 136.66 29.084 136.66 29.48C136.66 29.768 136.588 30.008 136.444 30.2C136.3 30.38 136.114 30.518 135.886 30.614C135.67 30.71 135.43 30.776 135.166 30.812C134.902 30.848 134.65 30.866 134.41 30.866C134.098 30.866 133.792 30.836 133.492 30.776C133.204 30.716 132.94 30.62 132.7 30.488C132.472 30.344 132.286 30.158 132.142 29.93C131.998 29.69 131.92 29.402 131.908 29.066ZM143.578 29.066H142.048C142.072 29.642 142.192 30.134 142.408 30.542C142.624 30.938 142.912 31.262 143.272 31.514C143.632 31.754 144.046 31.928 144.514 32.036C144.982 32.144 145.474 32.198 145.99 32.198C146.458 32.198 146.926 32.15 147.394 32.054C147.874 31.97 148.3 31.814 148.672 31.586C149.056 31.358 149.362 31.058 149.59 30.686C149.83 30.314 149.95 29.846 149.95 29.282C149.95 28.838 149.86 28.466 149.68 28.166C149.512 27.866 149.284 27.62 148.996 27.428C148.72 27.224 148.396 27.062 148.024 26.942C147.664 26.822 147.292 26.72 146.908 26.636C146.548 26.552 146.188 26.474 145.828 26.402C145.468 26.318 145.144 26.222 144.856 26.114C144.568 25.994 144.328 25.85 144.136 25.682C143.956 25.502 143.866 25.28 143.866 25.016C143.866 24.776 143.926 24.584 144.046 24.44C144.166 24.284 144.322 24.164 144.514 24.08C144.706 23.984 144.916 23.918 145.144 23.882C145.384 23.846 145.618 23.828 145.846 23.828C146.098 23.828 146.344 23.858 146.584 23.918C146.836 23.966 147.064 24.05 147.268 24.17C147.472 24.29 147.64 24.452 147.772 24.656C147.904 24.848 147.982 25.094 148.006 25.394H149.536C149.5 24.83 149.38 24.362 149.176 23.99C148.972 23.606 148.696 23.306 148.348 23.09C148.012 22.862 147.622 22.706 147.178 22.622C146.734 22.526 146.248 22.478 145.72 22.478C145.312 22.478 144.898 22.532 144.478 22.64C144.07 22.736 143.698 22.892 143.362 23.108C143.038 23.312 142.768 23.582 142.552 23.918C142.348 24.254 142.246 24.656 142.246 25.124C142.246 25.724 142.396 26.192 142.696 26.528C142.996 26.864 143.368 27.128 143.812 27.32C144.268 27.5 144.76 27.644 145.288 27.752C145.816 27.848 146.302 27.962 146.746 28.094C147.202 28.214 147.58 28.376 147.88 28.58C148.18 28.784 148.33 29.084 148.33 29.48C148.33 29.768 148.258 30.008 148.114 30.2C147.97 30.38 147.784 30.518 147.556 30.614C147.34 30.71 147.1 30.776 146.836 30.812C146.572 30.848 146.32 30.866 146.08 30.866C145.768 30.866 145.462 30.836 145.162 30.776C144.874 30.716 144.61 30.62 144.37 30.488C144.142 30.344 143.956 30.158 143.812 29.93C143.668 29.69 143.59 29.402 143.578 29.066ZM155.932 21.02V19.148H154.402V21.02H155.932ZM154.402 22.694V32H155.932V22.694H154.402ZM176.338 22.91H177.958C177.934 22.202 177.796 21.596 177.544 21.092C177.304 20.576 176.968 20.15 176.536 19.814C176.116 19.478 175.624 19.232 175.06 19.076C174.496 18.92 173.884 18.842 173.224 18.842C172.636 18.842 172.06 18.92 171.496 19.076C170.944 19.22 170.446 19.448 170.002 19.76C169.57 20.06 169.222 20.45 168.958 20.93C168.694 21.398 168.562 21.956 168.562 22.604C168.562 23.192 168.676 23.684 168.904 24.08C169.144 24.464 169.456 24.782 169.84 25.034C170.236 25.274 170.68 25.472 171.172 25.628C171.664 25.772 172.162 25.904 172.666 26.024C173.182 26.132 173.686 26.24 174.178 26.348C174.67 26.456 175.108 26.6 175.492 26.78C175.888 26.948 176.2 27.17 176.428 27.446C176.668 27.722 176.788 28.082 176.788 28.526C176.788 28.994 176.692 29.378 176.5 29.678C176.308 29.978 176.056 30.218 175.744 30.398C175.432 30.566 175.078 30.686 174.682 30.758C174.298 30.83 173.914 30.866 173.53 30.866C173.05 30.866 172.582 30.806 172.126 30.686C171.67 30.566 171.268 30.38 170.92 30.128C170.584 29.876 170.308 29.558 170.092 29.174C169.888 28.778 169.786 28.31 169.786 27.77H168.166C168.166 28.55 168.304 29.228 168.58 29.804C168.868 30.368 169.252 30.836 169.732 31.208C170.224 31.568 170.788 31.838 171.424 32.018C172.072 32.198 172.756 32.288 173.476 32.288C174.064 32.288 174.652 32.216 175.24 32.072C175.84 31.94 176.38 31.724 176.86 31.424C177.34 31.112 177.73 30.716 178.03 30.236C178.342 29.744 178.498 29.156 178.498 28.472C178.498 27.836 178.378 27.308 178.138 26.888C177.91 26.468 177.598 26.12 177.202 25.844C176.818 25.568 176.38 25.352 175.888 25.196C175.396 25.028 174.892 24.884 174.376 24.764C173.872 24.644 173.374 24.536 172.882 24.44C172.39 24.332 171.946 24.2 171.55 24.044C171.166 23.888 170.854 23.69 170.614 23.45C170.386 23.198 170.272 22.874 170.272 22.478C170.272 22.058 170.35 21.71 170.506 21.434C170.674 21.146 170.89 20.918 171.154 20.75C171.43 20.582 171.742 20.462 172.09 20.39C172.438 20.318 172.792 20.282 173.152 20.282C174.04 20.282 174.766 20.492 175.33 20.912C175.906 21.32 176.242 21.986 176.338 22.91ZM182.994 19.148V32H184.524V26.744C184.524 26.324 184.578 25.94 184.686 25.592C184.806 25.232 184.98 24.92 185.208 24.656C185.436 24.392 185.718 24.188 186.054 24.044C186.402 23.9 186.81 23.828 187.278 23.828C187.866 23.828 188.328 23.996 188.664 24.332C189 24.668 189.168 25.124 189.168 25.7V32H190.698V25.88C190.698 25.376 190.644 24.92 190.536 24.512C190.44 24.092 190.266 23.732 190.014 23.432C189.762 23.132 189.432 22.898 189.024 22.73C188.616 22.562 188.106 22.478 187.494 22.478C187.218 22.478 186.93 22.508 186.63 22.568C186.342 22.628 186.06 22.724 185.784 22.856C185.52 22.976 185.28 23.138 185.064 23.342C184.848 23.534 184.68 23.774 184.56 24.062H184.524V19.148H182.994ZM197.286 21.02V19.148H195.756V21.02H197.286ZM195.756 22.694V32H197.286V22.694H195.756ZM204.45 22.694V19.904H202.92V22.694H201.336V24.044H202.92V29.966C202.92 30.398 202.962 30.746 203.046 31.01C203.13 31.274 203.256 31.478 203.424 31.622C203.604 31.766 203.832 31.868 204.108 31.928C204.396 31.976 204.738 32 205.134 32H206.304V30.65H205.602C205.362 30.65 205.164 30.644 205.008 30.632C204.864 30.608 204.75 30.566 204.666 30.506C204.582 30.446 204.522 30.362 204.486 30.254C204.462 30.146 204.45 30.002 204.45 29.822V24.044H206.304V22.694H204.45ZM210.62 22.694V32H212.15V27.86C212.15 27.26 212.21 26.732 212.33 26.276C212.45 25.808 212.642 25.412 212.906 25.088C213.17 24.764 213.518 24.518 213.95 24.35C214.382 24.182 214.904 24.098 215.516 24.098V22.478C214.688 22.454 214.004 22.622 213.464 22.982C212.924 23.342 212.468 23.9 212.096 24.656H212.06V22.694H210.62ZM220.958 21.02V19.148H219.428V21.02H220.958ZM219.428 22.694V32H220.958V22.694H219.428ZM228.122 22.694V19.904H226.592V22.694H225.008V24.044H226.592V29.966C226.592 30.398 226.634 30.746 226.718 31.01C226.802 31.274 226.928 31.478 227.096 31.622C227.276 31.766 227.504 31.868 227.78 31.928C228.068 31.976 228.41 32 228.806 32H229.976V30.65H229.274C229.034 30.65 228.836 30.644 228.68 30.632C228.536 30.608 228.422 30.566 228.338 30.506C228.254 30.446 228.194 30.362 228.158 30.254C228.134 30.146 228.122 30.002 228.122 29.822V24.044H229.976V22.694H228.122Z" fill="black"/>
</svg>
