<svg width="43" height="27" viewBox="0 0 43 27" fill="none" xmlns="http://www.w3.org/2000/svg">
<path fill-rule="evenodd" clip-rule="evenodd" d="M0.825444 17.2901C2.18854 19.3412 3.86674 21.305 5.83526 22.8339C6.8207 23.6016 7.88994 24.2619 9.04001 24.734C10.1919 25.1842 11.431 25.4604 12.6549 25.6864C15.1149 26.1201 17.6482 26.1526 20.0994 25.6964C22.5553 25.2627 24.9033 24.3493 27.0966 23.1685C29.2846 21.963 31.3334 20.5055 33.1237 18.7647C34.9282 17.0387 36.4683 15.0501 37.8716 12.976C39.2341 10.877 40.6231 8.75095 41.5785 6.45965C41.798 5.88373 42.0051 5.29423 42.07 4.7012C42.0989 4.40615 42.0954 4.11229 42.0228 3.84439C41.949 3.57059 41.7915 3.37528 41.5684 3.12331C41.2285 2.67189 40.6438 2.36269 40.1304 2.0228C39.5993 1.69471 39.0559 1.37961 38.5088 1.0763L38.5065 1.07571L38.4811 1.05978C37.881 0.664423 37.0566 0.518082 36.2907 0.539325C35.9083 0.555847 35.4929 0.584762 35.1501 0.698648C34.7892 0.82822 34.4512 1.01425 34.1487 1.24979C32.906 2.20868 31.9371 3.53637 31.0921 4.87586L31.098 4.86406L26.7608 13.6481C25.052 16.4758 22.5004 18.77 19.4875 20.0942C17.976 20.7476 16.363 21.1349 14.7196 21.2389C13.0826 21.317 11.442 21.2135 9.82778 20.9303C6.62303 20.3503 3.46135 19.1353 0.825444 17.2913V17.2901ZM0.790039 17.2505C3.53361 19.044 6.61711 20.2532 9.84843 20.8029C11.4535 21.0713 13.0862 21.1616 14.7101 21.0702C16.3305 20.9559 17.9189 20.562 19.4049 19.9059C22.3612 18.5865 24.869 16.2757 26.5154 13.52L30.7982 4.71713L30.8047 4.70533C31.6662 3.32571 32.621 1.98621 33.9321 0.958876C34.2648 0.69692 34.6374 0.490114 35.0356 0.346367C35.4611 0.207107 35.8605 0.185864 36.2807 0.16285C37.1121 0.145148 37.9618 0.259034 38.7213 0.749985L38.6947 0.732873C39.2512 1.03554 39.8003 1.35152 40.3416 1.68055C40.8686 2.03106 41.4487 2.31017 41.8883 2.86072C42.0836 3.07374 42.3379 3.38295 42.4252 3.72638C42.5202 4.06863 42.5214 4.41324 42.4919 4.74368C42.4211 5.40635 42.2087 6.01945 41.9862 6.61838C41.0143 8.99112 39.6406 11.119 38.2823 13.2492C36.8838 15.3546 35.3336 17.3874 33.4902 19.1435C31.6662 20.9179 29.575 22.4067 27.3515 23.6329C22.9153 26.1313 17.5768 27.0489 12.59 26.0405C11.3443 25.7914 10.1151 25.5011 8.92318 25.0178C7.74773 24.5163 6.66551 23.8259 5.67771 23.0316C3.71808 21.4104 2.063 19.453 0.790039 17.2511" fill="#231F20"/>
</svg>
