<svg width="29" height="40" viewBox="0 0 29 40" fill="none" xmlns="http://www.w3.org/2000/svg">
<path d="M20.8973 30.7293C21.6008 31.6276 22.2487 39.5158 22.2487 39.5158C22.2487 39.5158 26.8602 34.3003 27.9004 26.9867C28.9388 19.6731 27.5217 18.6954 26.2914 14.981C25.0611 11.2666 19.8706 6.47798 17.2148 5.16299C15.2995 4.21517 9.16656 2.05995 5.84426 0.914882C4.64762 0.505015 3.29868 1.1813 2.87371 2.39724C0.901201 8.04828 0.526727 14.093 2.15337 19.6578C3.11859 22.9572 4.77806 26.0739 7.61649 27.6007C7.61649 27.6007 14.2274 30.8967 18.6294 30.0633C23.0297 29.2299 22.2201 37.6287 22.2201 37.6287" stroke="#010202" stroke-width="0.5" stroke-linecap="round" stroke-linejoin="round"/>
</svg>
