<svg width="57" height="58" viewBox="0 0 57 58" fill="none" xmlns="http://www.w3.org/2000/svg">
<path d="M22.394 46.9342C22.394 46.9342 12.8019 44.5612 9.38371 40.668C5.96743 36.773 0.457008 31.2664 0.931995 7.99961C0.931995 7.99961 4.54151 4.29681 23.7237 14.6475M37.2937 45.4465C36.7226 46.8714 38.5369 57.1898 38.5369 57.1898C38.5369 57.1898 31.1303 52.3476 27.4275 43.4209C23.7228 34.4942 25.1487 32.6904 25.4333 27.4674C25.717 22.2435 30.5259 14.0935 33.3625 11.3712C35.4061 9.40839 42.2482 4.25112 45.9625 1.48401C46.2787 1.24887 46.6396 1.08064 47.023 0.989592C47.4064 0.898548 47.8044 0.8866 48.1926 0.954478C48.5808 1.02236 48.9511 1.16863 49.2809 1.38439C49.6107 1.60014 49.893 1.88084 50.1107 2.20934C54.4151 8.64403 56.8767 16.2143 56.7158 23.955C56.6206 28.5459 55.6069 33.1749 52.617 36.2371C52.617 36.2371 45.5655 43.0411 39.8666 43.7055C34.1696 44.3699 37.9496 54.7701 37.9496 54.7701L37.2937 45.4465Z" stroke="#010202" stroke-width="0.5" stroke-linecap="round" stroke-linejoin="round"/>
</svg>
